<svg id="visual" viewBox="0 0 900 600" width="900" height="600" xmlns="http://www.w3.org/2000/svg" xmlns:xlink="http://www.w3.org/1999/xlink" version="1.1"><path d="M0 25L450 7L900 37L900 0L450 0L0 0Z" fill="#550086"></path><path d="M0 55L450 13L900 91L900 35L450 5L0 23Z" fill="#49077f"></path><path d="M0 67L450 61L900 133L900 89L450 11L0 53Z" fill="#3e0c77"></path><path d="M0 97L450 121L900 181L900 131L450 59L0 65Z" fill="#330f6f"></path><path d="M0 139L450 163L900 265L900 179L450 119L0 95Z" fill="#291067"></path><path d="M0 229L450 235L900 325L900 263L450 161L0 137Z" fill="#1f105f"></path><path d="M0 505L450 385L900 517L900 323L450 233L0 227Z" fill="#151056"></path><path d="M0 529L450 487L900 517L900 515L450 383L0 503Z" fill="#0b0f4d"></path><path d="M0 601L450 583L900 595L900 515L450 485L0 527Z" fill="#030d44"></path><path d="M0 601L450 601L900 601L900 593L450 581L0 599Z" fill="#01083b"></path></svg>