<?xml version="1.0" encoding="UTF-8"?>
<svg id="Capa_1" xmlns="http://www.w3.org/2000/svg" version="1.1" viewBox="0 0 1920 1080">
  <!-- Generator: Adobe Illustrator 29.3.1, SVG Export Plug-In . SVG Version: 2.1.0 Build 151)  -->
  <defs>
    <style>
      .st0 {
        fill: #fff;
      }
    </style>
  </defs>
  <path class="st0" d="M420.14,482.96h98.12v20.61h-38.76v94.09h-20.61v-94.09h-38.75v-20.61ZM624.38,557.8l28.12,39.86h-23.87l-26.58-38.29h-25.97v38.29h-20.62v-104.01c0-2.89,1.06-5.4,3.18-7.52s4.63-3.18,7.52-3.18h46.66c7.02,0,13.54,1.76,19.53,5.27,5.99,3.52,10.72,8.29,14.18,14.34s5.19,12.58,5.19,19.61-1.73,13.39-5.19,19.07c-3.47,5.68-8.17,10.13-14.11,13.33h0c-2.57,1.38-5.26,2.44-8.05,3.23ZM622.05,537.75c2.74-1.6,4.94-3.77,6.59-6.51,1.65-2.74,2.48-5.77,2.48-9.07s-.83-6.38-2.48-9.22c-1.66-2.84-3.88-5.12-6.67-6.82-2.79-1.71-5.84-2.56-9.15-2.56h-36.73v36.58h36.74c3.41,0,6.48-.8,9.22-2.4ZM694.56,597.54h20.62v-114.53h-20.62v114.53ZM995.7,503.74c3.72,6.41,5.58,13.23,5.58,20.77s-1.83,14.44-5.5,20.69-8.68,11.18-15.04,14.8-13.31,5.43-20.85,5.43h-30.69v32.24h-20.62v-104.01c0-2.89,1.06-5.4,3.18-7.52s4.63-3.18,7.52-3.18h40.61c7.44,0,14.33,1.86,20.69,5.58h0c6.35,3.73,11.39,8.79,15.11,15.2ZM980.51,524.5c0-3.72-.93-7.19-2.79-10.39-1.86-3.2-4.37-5.76-7.52-7.67-3.16-1.91-6.59-2.87-10.31-2.87h-30.69v41.23h30.69c3.82,0,7.31-.9,10.46-2.71,3.15-1.8,5.63-4.26,7.44-7.36h0c1.8-3.1,2.71-6.51,2.71-10.23ZM1028.55,503.57h38.75v94.09h20.62v-94.09h38.75v-20.61h-98.12v20.61ZM1337.42,481.25h0c-3.1,0-5.74,1.24-7.91,3.72l-38.75,52.05-38.75-52.05c-2.17-2.48-4.81-3.72-7.91-3.72-2.79,0-5.19,1.01-7.21,3.02-2.02,2.02-3.02,4.42-3.02,7.21v106.18h20.62v-77.46l36.27,49.72,36.27-49.72v77.46h20.62v-106.18c0-2.79-1.01-5.19-3.02-7.21-2.02-2.02-4.42-3.02-7.21-3.02ZM1499.87,539.86c0,10.75-2.64,20.67-7.91,29.76-5.27,9.09-12.4,16.3-21.39,21.62s-18.96,7.98-29.61,7.98-20.49-2.66-29.53-7.98c-9.04-5.32-16.2-12.53-21.47-21.62-5.27-9.1-7.91-19.17-7.91-29.92s2.64-20.62,7.91-29.61c5.27-8.99,12.4-16.12,21.39-21.39,8.99-5.27,19.07-7.91,29.61-7.91s20.33,2.61,29.37,7.83c9.05,5.22,16.23,12.32,21.55,21.31h.01c5.32,9,7.98,19.18,7.98,29.93ZM1479.27,539.85c0-7.03-1.71-13.46-5.12-19.3s-8.03-10.49-13.87-13.95c-5.84-3.46-12.27-5.19-19.3-5.19s-13.43,1.73-19.22,5.19-10.39,8.11-13.8,13.95c-3.41,5.84-5.12,12.17-5.12,19.3s1.71,13.64,5.12,19.53,8.03,10.6,13.87,14.11c5.83,3.51,12.12,5.27,19.14,5.27s13.43-1.76,19.22-5.27c5.78-3.52,10.41-8.22,13.87-14.11h.02c3.46-5.89,5.19-12.5,5.19-19.53ZM1166.62,597.54h20.62v-114.53h-20.62v114.53ZM843.87,488.61c-7.68-4.43-15.91-6.96-24.66-7.63v20.7h-.01c5.22.61,10.08,2.24,14.59,4.91,5.84,3.46,10.46,8.11,13.87,13.95,3.41,5.84,5.12,12.27,5.12,19.3,0,5.39-.99,10.43-2.97,15.11l17.93,10.35c3.76-7.9,5.66-16.38,5.66-25.46,0-10.95-2.66-20.93-7.98-29.92-5.32-8.99-12.5-16.09-21.55-21.31ZM845.1,563.11c-3.1,4.17-6.89,7.64-11.39,10.37-5.79,3.51-12.2,5.27-19.22,5.27s-13.31-1.76-19.14-5.27c-4.55-2.74-8.35-6.21-11.43-10.39l-17.98,10.38c4.97,7.29,11.3,13.22,19.02,17.76,9.04,5.32,18.88,7.98,29.53,7.98s20.62-2.66,29.61-7.98c7.67-4.54,13.98-10.47,18.94-17.76l-17.94-10.36h0ZM779.26,554.89h0s0,0,0,.01h0ZM776.36,539.84c0-7.03,1.7-13.46,5.12-19.3,3.41-5.84,8.01-10.49,13.8-13.95,4.47-2.67,9.31-4.3,14.51-4.91v-20.71c-8.94.66-17.24,3.22-24.9,7.71-8.99,5.27-16.12,12.4-21.39,21.39s-7.91,18.86-7.91,29.61c0,9.17,1.9,17.7,5.66,25.61l18.01-10.4c-1.93-4.67-2.9-9.68-2.9-15.05Z"/>
</svg>